<?xml version="1.0" encoding="utf-8"?>
<!-- Generator: Adobe Illustrator 28.3.0, SVG Export Plug-In . SVG Version: 6.00 Build 0)  -->
<svg version="1.1" id="Layer_1" xmlns="http://www.w3.org/2000/svg" xmlns:xlink="http://www.w3.org/1999/xlink" x="0px" y="0px"
	 viewBox="0 0 32 32" style="enable-background:new 0 0 32 32;" xml:space="preserve">
<style type="text/css">
	.st0{fill:none;}
</style>
<g>
	<g>
		<g>
			<path class="st0" d="M16,30.9c-1.7-0.5-3.9-1.5-5.8-2.7c-2.2-1.4-3.9-3-4.8-4.5c-0.7-1.1-1-2.1-1-3.1v-16h0c1.2,0,2.2-1,2.2-2.2
				v0h18.8v0c0,1.2,1,2.2,2.2,2.2h0v16c0,1-0.3,2.1-1,3.1c-0.9,1.5-2.6,3.1-4.8,4.5C19.9,29.4,17.7,30.4,16,30.9L16,30.9L16,30.9z"
				/>
		</g>
		<g>
			<path d="M25.3,2.3c0,1.2,1,2.2,2.2,2.2v15.9c0,1-0.3,2-1,3.1c-2,3.2-7.3,6.3-10.6,7.2c-3.3-0.9-8.6-4-10.6-7.2
				c-0.7-1.1-1-2.1-1-3.1V4.6c1.2,0,2.2-1,2.2-2.2H25.3 M25.4,2.2L25.4,2.2H6.7H6.6v0.1c0,1.2-1,2.1-2.1,2.1H4.3v0.1v15.9
				c0,1,0.3,2.1,1,3.2c0.5,0.8,1.2,1.6,2,2.4c0.8,0.7,1.7,1.5,2.8,2.1c1.9,1.3,4.1,2.3,5.8,2.8l0,0l0,0c1.7-0.5,3.9-1.5,5.8-2.8
				c1.1-0.7,2-1.4,2.8-2.1c0.9-0.8,1.6-1.6,2-2.4c0.7-1.1,1-2.1,1-3.2V4.6V4.5h-0.1C26.4,4.5,25.4,3.5,25.4,2.2L25.4,2.2L25.4,2.2z"
				/>
		</g>
	</g>
	<g>
		<path d="M16,31.4c-0.1,0-0.1,0-0.2,0c-1.7-0.5-4-1.5-5.9-2.8c-1.6-1-3.8-2.7-5-4.7c-0.7-1.2-1.1-2.3-1.1-3.4V4.6
			c0-0.3,0.3-0.6,0.6-0.6c0.9,0,1.6-0.7,1.6-1.6c0-0.3,0.3-0.6,0.6-0.6h18.7c0.3,0,0.6,0.3,0.6,0.6c0,0.9,0.7,1.6,1.6,1.6
			c0.3,0,0.6,0.3,0.6,0.6v15.9c0,1.1-0.4,2.3-1.1,3.4c-1.2,2-3.4,3.6-5,4.7c-2,1.3-4.2,2.3-6,2.8C16.1,31.4,16.1,31.4,16,31.4z
			 M6.7,2C6.5,2,6.4,2.2,6.4,2.3c0,1.1-0.9,1.9-1.9,1.9c-0.2,0-0.3,0.1-0.3,0.3v15.9c0,1.1,0.4,2.2,1,3.3c1.2,1.9,3.3,3.6,4.9,4.6
			c1.9,1.3,4.1,2.3,5.9,2.8c0.1,0,0.1,0,0.2,0c1.7-0.5,3.9-1.5,5.9-2.8c1.6-1,3.7-2.7,4.9-4.6c0.7-1.1,1-2.2,1-3.3V4.6
			c0-0.2-0.1-0.3-0.3-0.3c-1.1,0-1.9-0.9-1.9-1.9c0-0.2-0.1-0.3-0.3-0.3H6.7z"/>
	</g>
	<g>
		<g>
			<path d="M6.9,11.1c0,0,0.1,0,0.1,0c0.1,0,0.1-0.1,0.1-0.2c0-0.1,0-0.1,0-0.1c0-0.1,0-0.1-0.1-0.1c0,0-0.1,0-0.1,0
				c0,0-0.1,0.1-0.1,0.1l-0.1,0.1C6.8,11,6.7,11,6.7,11.1c-0.1,0.1-0.2,0.1-0.3,0c-0.1,0-0.2-0.1-0.2-0.2c0-0.1,0-0.2,0-0.3
				c0-0.1,0.1-0.2,0.2-0.3c0.1-0.1,0.2-0.1,0.3,0l-0.1,0.2c-0.1,0-0.1,0-0.2,0c0,0-0.1,0.1-0.1,0.1c0,0.1,0,0.1,0,0.1
				c0,0,0,0.1,0.1,0.1c0,0,0.1,0,0.1,0c0,0,0-0.1,0.1-0.1l0.1-0.2c0-0.1,0.1-0.1,0.1-0.2c0.1,0,0.1-0.1,0.2,0c0.1,0,0.2,0.1,0.2,0.2
				c0,0.1,0,0.2,0,0.3c0,0.1-0.1,0.2-0.2,0.3c-0.1,0.1-0.2,0.1-0.3,0L6.9,11.1z"/>
		</g>
		<g>
			<path d="M7,9.3L6.8,9.8L7,9.9l0.2-0.5l0.2,0.1L7.1,10l0.3,0.1l0.2-0.5l0.2,0.1l-0.3,0.7l-1-0.4l0.3-0.7L7,9.3z"/>
		</g>
		<g>
			<path d="M6.9,9l0.1-0.2L7.4,9L7.3,8.4l0.1-0.3l0.2,0.6l0.8-0.1L8.2,8.9L7.6,9l0,0.1L8,9.3L7.9,9.5L6.9,9z"/>
		</g>
		<g>
			<path d="M8.8,7.9c0,0.1,0,0.2-0.1,0.4C8.6,8.4,8.5,8.4,8.4,8.5c-0.1,0-0.3,0-0.5-0.1C7.8,8.2,7.7,8.1,7.7,7.9
				c0-0.1,0-0.2,0.1-0.4C7.9,7.4,8,7.4,8.1,7.4c0.1,0,0.3,0,0.5,0.1C8.7,7.6,8.8,7.7,8.8,7.9z M8.6,7.9c0-0.1-0.1-0.2-0.2-0.2
				C8.3,7.6,8.2,7.6,8.2,7.6C8.1,7.6,8,7.6,8,7.7c-0.1,0.1-0.1,0.1,0,0.2C7.9,8,8,8.1,8.1,8.1s0.2,0.1,0.3,0.1c0.1,0,0.2,0,0.2-0.1
				C8.6,8.1,8.6,8,8.6,7.9z"/>
		</g>
		<g>
			<path d="M8.3,7l0.2-0.2l0.6,0.6L9.5,7l0.1,0.1L9.1,7.7L8.3,7z"/>
		</g>
		<g>
			<path d="M9.2,6.1l0.2-0.2l1,0.6l-0.2,0.2L10,6.5L9.7,6.8L9.8,7L9.7,7.1L9.2,6.1z M9.7,6.6l0.2-0.2L9.5,6.2L9.7,6.6z"/>
		</g>
		<g>
			<path d="M10.5,6.4L9.9,5.5l0.2-0.1l0.2,0.3l0.3-0.2l-0.2-0.3L10.6,5l0.6,0.9L11,6l-0.3-0.4l-0.3,0.2l0.3,0.4L10.5,6.4z"/>
		</g>
		<g>
			<path d="M11.9,4.4c0.1,0,0.2,0,0.2,0c0.1,0,0.1,0.1,0.1,0.1c0,0.1,0.1,0.1,0.1,0.2c0.1,0.1,0.1,0.3,0.1,0.4
				c0,0.2-0.1,0.3-0.2,0.3l-0.4,0.2l-0.5-1l0.4-0.2C11.8,4.4,11.8,4.4,11.9,4.4z M11.6,4.7l0.3,0.6L12,5.3c0.1,0,0.1-0.1,0.1-0.2
				c0-0.1,0-0.1-0.1-0.2c0-0.1-0.1-0.2-0.2-0.2c-0.1,0-0.1,0-0.2,0L11.6,4.7z"/>
		</g>
		<g>
			<path d="M12.6,4.1L12.9,4l0.7,0.9L13.4,5l-0.1-0.2l-0.4,0.1l0,0.2l-0.2,0.1L12.6,4.1z M12.8,4.7l0.3-0.1l-0.3-0.4L12.8,4.7z"/>
		</g>
		<g>
			<path d="M13.8,4.5C13.8,4.6,13.8,4.6,13.8,4.5C13.9,4.6,14,4.7,14,4.6c0.1,0,0.1,0,0.1,0c0.1,0,0.1-0.1,0.1-0.1
				c0,0,0-0.1-0.1-0.1c0,0-0.1,0-0.2,0l-0.1,0c-0.1,0-0.2,0-0.2,0c-0.1,0-0.1-0.1-0.2-0.2c0-0.1,0-0.2,0.1-0.3
				c0.1-0.1,0.2-0.1,0.3-0.2c0.1,0,0.2,0,0.3,0c0.1,0,0.2,0.1,0.2,0.2l-0.2,0c0-0.1-0.1-0.1-0.1-0.1c0,0-0.1,0-0.1,0
				c-0.1,0-0.1,0-0.1,0.1c0,0,0,0.1,0,0.1c0,0,0,0.1,0.1,0.1c0,0,0.1,0,0.1,0l0.2,0c0.1,0,0.2,0,0.2,0c0.1,0,0.1,0.1,0.1,0.2
				c0,0.1,0,0.2-0.1,0.3c-0.1,0.1-0.2,0.1-0.3,0.2c-0.1,0-0.3,0-0.3,0c-0.1,0-0.2-0.1-0.2-0.2L13.8,4.5z"/>
		</g>
		<g>
			<path d="M14.8,3.6l0.3,0l0.5,1l-0.2,0l-0.1-0.2l-0.4,0l-0.1,0.2l-0.2,0L14.8,3.6z M14.9,4.2l0.3,0L15,3.8L14.9,4.2z"/>
		</g>
		<g>
			<path d="M16.4,3.5C16.4,3.6,16.5,3.6,16.4,3.5c0.1,0.1,0.1,0.1,0.2,0.2c0,0,0,0.1,0,0.1c0,0.1,0,0.1,0,0.2c0,0-0.1,0.1-0.1,0.1
				c0,0,0.1,0,0.1,0.1c0,0,0,0.1,0,0.2l0,0.1c0,0,0,0.1,0,0.1c0,0,0,0,0,0.1l0,0l-0.2,0c0,0,0,0,0-0.1c0,0,0-0.1,0-0.1l0-0.1
				c0-0.1,0-0.1,0-0.1c0,0-0.1,0-0.1,0l-0.2,0l0,0.4l-0.2,0l0-1.1l0.5,0C16.3,3.5,16.4,3.5,16.4,3.5z M15.9,3.7l0,0.3l0.2,0
				c0,0,0.1,0,0.1,0c0,0,0.1-0.1,0.1-0.1c0-0.1,0-0.1-0.1-0.1c0,0-0.1,0-0.1,0L15.9,3.7z"/>
		</g>
		<g>
			<path d="M17.3,3.6l0.2,0l0.3,0.8L18,3.7l0.2,0L18,4.8l-0.2,0l-0.3-0.8l-0.1,0.8l-0.2,0L17.3,3.6z"/>
		</g>
		<g>
			<path d="M19.2,4.2L18.6,4l-0.1,0.2l0.5,0.1L19,4.6l-0.5-0.1l-0.1,0.3L19,4.9L19,5.1l-0.8-0.2l0.3-1L19.2,4L19.2,4.2z"/>
		</g>
		<g>
			<path d="M20.1,4.7c0-0.1,0-0.1-0.1-0.2c0,0-0.1-0.1-0.1-0.1c-0.1,0-0.2,0-0.2,0c-0.1,0-0.1,0.1-0.2,0.2c-0.1,0.1-0.1,0.2,0,0.3
				c0,0.1,0.1,0.1,0.2,0.2c0.1,0,0.1,0,0.2,0c0.1,0,0.1-0.1,0.1-0.1l-0.2-0.1l0.1-0.2l0.4,0.2L20,5.5l-0.1-0.1l0-0.1
				c-0.1,0-0.1,0-0.1,0.1c-0.1,0-0.1,0-0.2,0c-0.1-0.1-0.2-0.1-0.3-0.3c0-0.1,0-0.3,0-0.4c0.1-0.2,0.2-0.3,0.3-0.3
				c0.1-0.1,0.3-0.1,0.4,0c0.1,0.1,0.2,0.1,0.3,0.2c0,0.1,0.1,0.2,0,0.3L20.1,4.7z"/>
		</g>
		<g>
			<path d="M21.3,5.2l-0.5-0.3l-0.1,0.2l0.5,0.3L21,5.5l-0.5-0.3l-0.1,0.2l0.5,0.3L20.8,6l-0.7-0.4l0.5-0.9L21.4,5L21.3,5.2z"/>
		</g>
		<g>
			<path d="M22.1,5.6c0,0,0,0.1,0,0.1c0,0,0,0.1,0,0.1c0,0,0,0.1,0,0.1C22.1,6,22.1,6,22,6c0,0-0.1,0-0.2,0c0,0,0,0.1,0,0.1
				c0,0,0,0.1-0.1,0.2l0,0.1c0,0,0,0.1-0.1,0.1c0,0,0,0.1,0,0.1l0,0l-0.2-0.1c0,0,0,0,0-0.1c0,0,0-0.1,0-0.1l0.1-0.1
				c0-0.1,0.1-0.1,0.1-0.1c0,0,0-0.1-0.1-0.1l-0.2-0.1l-0.2,0.3L21,6l0.6-0.9L22,5.5C22.1,5.5,22.1,5.6,22.1,5.6z M21.7,5.4
				l-0.2,0.2l0.2,0.1c0,0,0.1,0,0.1,0c0,0,0.1,0,0.1-0.1c0-0.1,0-0.1,0-0.1c0,0,0,0-0.1-0.1L21.7,5.4z"/>
		</g>
		<g>
			<path d="M22,6.8l-0.2-0.1l0.7-0.8L22.7,6L22,6.8z"/>
		</g>
		<g>
			<path d="M23.7,7l-0.1,0.1l-0.2-0.2l-0.6,0.6l-0.2-0.2l0.6-0.6L23,6.5l0.1-0.1L23.7,7z"/>
		</g>
		<g>
			<path d="M24.2,7.9l-0.3-0.5l-0.2,0.1L24,8.1l-0.1,0.1l-0.3-0.4l-0.2,0.2l0.4,0.5l-0.2,0.1L23,7.9l0.9-0.7l0.5,0.6L24.2,7.9z"/>
		</g>
		<g>
			<path d="M24,8.5L24,8.5c-0.1,0.1-0.1,0.1-0.2,0.1c0,0,0,0.1,0,0.1c0,0,0.1,0.1,0.1,0.1c0,0,0.1,0,0.1,0l0.6-0.4l0.1,0.2L24.2,9
				C24.1,9,24,9,24,9c-0.1,0-0.2-0.1-0.3-0.2c-0.1-0.1-0.1-0.2-0.1-0.3c0-0.1,0.1-0.2,0.2-0.2l0,0L24,8.5z"/>
		</g>
		<g>
			<path d="M25.1,9.1l0.1,0.2l-0.8,0.8l-0.1-0.2l0.2-0.2l-0.2-0.4l-0.2,0L24,9.3L25.1,9.1z M24.5,9.4l0.1,0.2L25,9.3L24.5,9.4z"/>
		</g>
		<g>
			<path d="M24.7,10.8l-0.1-0.2l1-0.4l0.1,0.2L24.7,10.8z"/>
		</g>
		<g>
			<path d="M24.8,11.2L24.7,11l1-0.3l0.1,0.2L24.8,11.2z"/>
		</g>
	</g>
	<g>
		<g>
			<g>
				<polygon points="16,26 16,26 16,26 				"/>
			</g>
		</g>
		<g>
			<g>
				<path d="M24.4,21.6C24.4,21.6,24.4,21.6,24.4,21.6c0,0.1,0,0.1,0,0.2"/>
			</g>
		</g>
		<g>
			<g>
				<path d="M24.4,21.6C24.4,21.6,24.4,21.6,24.4,21.6c0,0.1,0,0.1,0,0.2"/>
			</g>
		</g>
		<g>
			<g>
				<line x1="22.6" y1="11.6" x2="22.6" y2="11.6"/>
			</g>
		</g>
		<g>
			<g>
				<path d="M24.4,21.6C24.4,21.6,24.4,21.6,24.4,21.6c0,0.1,0,0.1,0,0.2"/>
			</g>
		</g>
		<g>
			<g>
				<path d="M17,22.8C17,22.8,17,22.8,17,22.8"/>
			</g>
		</g>
		<g>
			<g>
				<path d="M24.4,21.6C24.4,21.6,24.4,21.6,24.4,21.6c0,0.1,0,0.1,0,0.2"/>
			</g>
		</g>
		<g>
			<g>
				<line x1="22.6" y1="11.6" x2="22.6" y2="11.6"/>
			</g>
		</g>
		<g>
			<g>
				<polygon points="16,26 16,26 16,26 				"/>
			</g>
		</g>
		<g>
			<g>
				<g>
					<polygon points="19.1,20.4 19.1,20.4 19.1,20.4 					"/>
				</g>
			</g>
			<g>
				<g>
					<path d="M26.3,11.5C26.2,11.5,26.2,11.5,26.3,11.5c0,0,0-0.1,0-0.1C26.2,11.4,26.2,11.4,26.3,11.5z"/>
				</g>
			</g>
		</g>
		<g>
			<g>
				<g>
					<path d="M24.4,21.8c0-0.1,0-0.1,0-0.2c0,0,0,0,0,0C24.4,21.7,24.4,21.8,24.4,21.8z"/>
				</g>
			</g>
		</g>
		<g>
			<g>
				<g>
					<line x1="19.2" y1="19" x2="19.2" y2="19"/>
				</g>
			</g>
		</g>
		<g>
			<g>
				<polygon points="19.1,20.4 19.1,20.4 19.1,20.4 				"/>
			</g>
		</g>
		<g>
			<g>
				<path d="M26.3,11.5C26.2,11.5,26.2,11.5,26.3,11.5c0,0,0-0.1,0-0.1C26.2,11.4,26.2,11.4,26.3,11.5z"/>
			</g>
		</g>
		<g>
			<g>
				<line x1="16" y1="26" x2="16" y2="26"/>
			</g>
		</g>
		<g>
			<g>
				<polygon points="16,26 16,26 16,26 				"/>
			</g>
		</g>
	</g>
	<g>
		<g>
			<polygon points="16,26 16,26 16,26 			"/>
		</g>
	</g>
	<g>
		<g>
			<path d="M17,22.8C17,22.8,17,22.8,17,22.8"/>
		</g>
	</g>
	<g>
		<g>
			<polygon points="16,26 16,26 16,26 			"/>
		</g>
	</g>
	<g>
		<g>
			<g>
				<polygon points="19.1,20.4 19.1,20.4 19.1,20.4 				"/>
			</g>
		</g>
		<g>
			<g>
				<path d="M26.3,11.5C26.2,11.5,26.2,11.5,26.3,11.5c0,0,0-0.1,0-0.1C26.2,11.4,26.2,11.4,26.3,11.5z"/>
			</g>
		</g>
	</g>
	<g>
		<g>
			<path d="M17.2,10c0,0.7-0.5,1.2-1.2,1.2s-1.2-0.5-1.2-1.2c0-0.7,0.5-1.2,1.2-1.2C16.7,8.8,17.2,9.3,17.2,10z"/>
		</g>
	</g>
	<g>
		<g>
			<path d="M16.2,23.1h-0.1v-1.5c0.2-0.1,0.2-0.5-0.1-0.5c-0.3,0-0.3,0.4-0.1,0.5v1.5h-0.1c0-0.6-0.6-1.5-0.9-1.7
				c0,0,0.4-1.9,0.4-1.9h1.3c0,0,0.4,1.9,0.4,1.9C16.8,21.6,16.2,22.5,16.2,23.1z"/>
		</g>
	</g>
	<g>
		<g>
			<line x1="19.2" y1="19" x2="19.2" y2="19"/>
		</g>
	</g>
	<g>
		<g>
			<polygon points="19.1,20.4 19.1,20.4 19.1,20.4 			"/>
		</g>
	</g>
	<g>
		<g>
			<path d="M16,24c-2.1,1.7-4.7,2.7-7.4,2.9c2.1,1.7,5.3,3.3,7.4,3.9c2.2-0.6,5.4-2.3,7.4-3.9C20.7,26.7,18.1,25.7,16,24z M16,26
				C16,26,16,26,16,26C16,26,16,26,16,26L16,26z"/>
		</g>
	</g>
	<g>
		<g>
			<g>
				<g>
					<path d="M22.6,11.6c-2.8,0.7-5.1,3-5.9,5.7v-4C18.4,12.1,20.5,11.4,22.6,11.6z"/>
				</g>
			</g>
			<g>
				<g>
					<path d="M26.3,11.5C26.2,11.5,26.2,11.5,26.3,11.5c0,0,0-0.1,0-0.1C26.2,11.4,26.2,11.4,26.3,11.5z"/>
				</g>
			</g>
		</g>
		<g>
			<g>
				<path d="M15.2,17.4v-4c-1.6-1.2-3.8-1.9-5.9-1.7C12.2,12.4,14.4,14.6,15.2,17.4z"/>
			</g>
		</g>
	</g>
	<g>
		<g>
			<g>
				<g>
					<path d="M24.4,21.8c0,0.5-0.6,1-1.1,1.3c-0.6,0-1.1,0.5-1.2,1c-1-0.1-4.5-1.3-5.1,0.2c-0.3-0.2-0.5-0.3-0.8-0.5
						c0.5-1.3,1.9-1.5,3.1-1.6c0.1,0,0.1-0.2,0.3-0.3c0.1,0,0.3,0,0.4,0.1c0.1-0.2,0.5-0.2,0.6,0c0.1-0.2,0.4-0.2,0.6,0
						c0.2-0.2,0.5-0.1,0.6,0.1c0.9,0,1.9-0.2,2.6-0.6C24.4,21.7,24.4,21.8,24.4,21.8z"/>
				</g>
			</g>
			<g>
				<g>
					<path d="M24.4,21.8c0-0.1,0-0.1,0-0.2c0,0,0,0,0,0C24.4,21.7,24.4,21.8,24.4,21.8z"/>
				</g>
			</g>
		</g>
		<g>
			<g>
				<path d="M9.9,24.1c1-0.1,4.5-1.3,5.1,0.2c0.3-0.2,0.5-0.3,0.8-0.5c-0.5-1.3-1.9-1.5-3.1-1.6c-0.1,0-0.1-0.2-0.3-0.3
					c-0.1,0-0.3,0-0.4,0.1c-0.1-0.2-0.5-0.2-0.6,0c-0.1-0.2-0.4-0.2-0.6,0c-0.2-0.2-0.5-0.1-0.6,0.1c-0.9,0-1.9-0.2-2.6-0.6
					c0,0,0,0,0,0c0,0.1,0,0.1,0,0.2c0,0.5,0.6,1,1.1,1.3C9.3,23.1,9.8,23.5,9.9,24.1z"/>
			</g>
		</g>
	</g>
	<g>
		<g>
			<g>
				<path d="M19,15.5v3.3c-0.9,0-1.7,0.2-2.5,0.6v0c0.6-0.4,1.4-0.8,2.2-0.9L19,15.5z"/>
			</g>
		</g>
		<g>
			<g>
				<path d="M19.6,15.3v4.1c-0.4-0.1-0.8-0.1-1.1-0.1c-0.4,0-0.9,0.1-1.4,0.1c0.6-0.3,1.4-0.4,2.1-0.4
					C19.3,18.7,19.6,15.6,19.6,15.3z"/>
			</g>
		</g>
		<g>
			<g>
				<path d="M13.3,18.5L13,15.5v3.3c0.9,0,1.7,0.2,2.5,0.6v0C14.9,19,14.1,18.7,13.3,18.5z"/>
			</g>
		</g>
		<g>
			<g>
				<path d="M13.5,19.3c0.4,0,0.9,0.1,1.4,0.1c-0.6-0.3-1.4-0.4-2.1-0.4c0-0.3-0.4-3.4-0.4-3.7v4.1C12.7,19.4,13.1,19.3,13.5,19.3z"
					/>
			</g>
		</g>
	</g>
	<g>
		<g>
			<g>
				<path d="M26.6,14c0,0.4,0,0.8-0.1,1.1c-0.8,0.4-1.6,0.7-2.5,0.9c0,0.2,0,0.3,0,0.5c0.9-0.1,1.7-0.4,2.5-0.8
					c-0.1,0.3-0.2,0.7-0.3,1c-0.7,0.3-1.5,0.6-2.4,0.7c0,0.2-0.1,0.3-0.1,0.5c0.8-0.1,1.6-0.3,2.3-0.6c-0.2,0.4-0.3,0.8-0.6,1.1
					c-0.7,0.2-1.3,0.4-2,0.5c-0.1,0.2-0.1,0.3-0.2,0.5c0.6,0,1.3-0.2,1.9-0.3c-0.3,0.4-0.7,0.8-1,1.2c0,0,0,0,0-0.1
					c-0.4,0.1-0.9,0.1-1.4,0.1c-0.1,0.2-0.2,0.3-0.3,0.5c0.4,0,0.8,0,1.2-0.1c-1.2,1.2-3.4,1.1-4.5-0.1c0,0,0,0,0,0
					c2.2-0.8,2.8-3.7,1.1-5.3c0.1-0.5,0.5-1,1-1.1c2.5,1.5,4.7,0.3,5-2.6c0,0,0,0,0.1,0C26.5,12.3,26.7,13.2,26.6,14z"/>
			</g>
		</g>
		<g>
			<g>
				<path d="M8,20.1C8,20.1,7.9,20.1,8,20.1c0.4,0,0.9,0.1,1.3,0.1c0.1,0.2,0.2,0.3,0.3,0.5c-0.4,0-0.8,0-1.2-0.1
					c1.2,1.2,3.4,1.1,4.5-0.1c0,0,0,0,0,0c0,0,0,0,0,0c-2.2-0.8-2.8-3.7-1.1-5.3c-0.1-0.5-0.5-1-1-1.1c-2.5,1.5-4.7,0.3-5-2.6
					c0,0,0-0.1,0-0.1c0,0,0,0.1,0,0.1c-0.3,0.8-0.4,1.7-0.4,2.6c0,0.4,0,0.8,0.1,1.1c0.8,0.4,1.6,0.7,2.5,0.9c0,0.2,0,0.3,0,0.5
					c-0.9-0.1-1.7-0.4-2.5-0.8c0.1,0.3,0.2,0.7,0.3,1c0.7,0.3,1.5,0.6,2.4,0.7c0,0.2,0.1,0.3,0.1,0.5c-0.8-0.1-1.6-0.3-2.3-0.6
					c0.2,0.4,0.3,0.8,0.6,1.1c0.7,0.2,1.3,0.4,2,0.5c0.1,0.2,0.1,0.3,0.2,0.5c-0.6,0-1.3-0.2-1.9-0.3C7.2,19.4,7.6,19.8,8,20.1z"/>
			</g>
		</g>
	</g>
</g>
</svg>
